# xmcd
#
# Track frame offsets:
#	150
#	20469
#	41428
#	60509
#	85996
#	109801
#	129529
#	150872
#	173000
#	193786
#	214912
#	230200
#
# Disc length: 3390 seconds
#
# Revision: 0
# Processed by: cddbd v1.5.1PL0 Copyright (c) Steve Scherf et al.
# Submitted via: dBpowerAMP V4.0
#
DISCID=9b0d3c0c
DTITLE=Blessed - 你的愛溫暖我
DYEAR=1900
DGENRE=Christian Rap
TTITLE0=我在這裡敬拜
TTITLE1=奇妙神
TTITLE2=你是我藏身處
TTITLE3=我會記念你
TTITLE4=你的愛溫暖我
TTITLE5=阿爸天父
TTITLE6=讓我親近你
TTITLE7=我獻上一生
TTITLE8=超越一切
TTITLE9=向主呼喊
TTITLE10=祂認得我
TTITLE11=呼喊聖潔
EXTD=
EXTT0=
EXTT1=
EXTT2=
EXTT3=
EXTT4=
EXTT5=
EXTT6=
EXTT7=
EXTT8=
EXTT9=
EXTT10=
EXTT11=
PLAYORDER=
